<!--?xml version="1.0" standalone="no"?-->
              <svg id="sw-js-blob-svg" viewBox="0 0 100 100" xmlns="http://www.w3.org/2000/svg" version="1.1">
                    <defs> 
                        <linearGradient id="sw-gradient" x1="0" x2="1" y1="1" y2="0">
                            <stop id="stop1" stop-color="rgba(248, 117, 55, 1)" offset="0%"  ></stop>
                            <stop id="stop2" stop-color="rgba(255, 0, 0, 1)" offset="100%"  ></stop>
                        </linearGradient>
                    </defs>
                <path fill="url(#sw-gradient)" d="M12,-19.9C14.8,-19.2,15.7,-14.4,16.7,-10.4C17.7,-6.4,18.8,-3.2,21.1,1.3C23.4,5.8,26.9,11.7,25.9,15.8C25,20,19.7,22.4,14.6,22.4C9.6,22.4,4.8,19.9,-1.4,22.3C-7.6,24.8,-15.3,32.2,-22,33.2C-28.7,34.2,-34.5,28.7,-36.1,22.1C-37.6,15.5,-35,7.8,-32.9,1.2C-30.8,-5.3,-29.3,-10.7,-26.9,-16C-24.6,-21.4,-21.6,-26.8,-17,-26.4C-12.4,-26,-6.2,-19.9,-0.8,-18.6C4.6,-17.2,9.2,-20.6,12,-19.9Z" width="100%" height="100%" transform="translate(50 50)" style="transition: all 0.3s ease 0s;" stroke-width="0" stroke="url(#sw-gradient)"></path>
              </svg>