<svg width="1920" height="1080" xmlns="http://www.w3.org/2000/svg"><g stroke-width="3" stroke-linejoin="bevel" stroke="#000"><path d="m982 542 25-10-88-49z" fill="#0b0000"/><path d="m1007 532 30-18-118-31z" fill="#0b0000"/><path d="m1037 514-40-134-78 103z" fill="#1e0908"/><path d="m919 483 12 107 51-48z" fill="#2c0f0e"/><path d="m982 542 99 87-74-97z" fill="#3a1112"/><path d="m1007 532 74 97-44-115z" fill="#421213"/><path d="m997 380-43-8-35 111zM919 483l-11 110 23-3z" fill="#4a1314"/><path d="m803 419 26 99 90-35z" fill="#331010"/><path d="m919 483-90 35 79 75z" fill="#3a1112"/><path d="m1087 666-6-37-71 113zM931 590l150 39-99-87z" fill="#250c0b"/><path d="m1037 514 57-180-97 46z" fill="#331010"/><path d="m954 372-151 47 116 64z" fill="#1e0908"/><path d="m997 380-37-81-6 73z" fill="#2c0f0e"/><path d="m954 372-37-73-114 120z" fill="#591515"/><path d="m1183 383-89-49-57 180z" fill="#0b0000"/><path d="m997 380 26-85-63 4z" fill="#591515"/><path d="M960 299h-43l37 73z" fill="#421213"/><path d="m699 562 99 13 31-57z" fill="#331010"/><path d="m829 518-31 57 110 18z" fill="#250c0b"/><path d="m1010 742 71-113-150-39z" fill="#160404"/><path d="m1094 334-71-39-26 85z" fill="#421213"/><path d="m960 299-33-59-10 59z" fill="#1e0908"/><path d="m1081 629 77-43-121-72z" fill="#511415"/><path d="m912 737 19-147-23 3zM1081 629l6 37 71-80z" fill="#250c0b"/><path d="m798 575 53 84 57-66z" fill="#160404"/><path d="m1158 586 25-203-146 131z" fill="#1e0908"/><path d="m1183 383-66-82-23 33z" fill="#160404"/><path d="m1094 334 23-33-94-6z" fill="#511415"/><path d="m927 240-113 56 103 3z" fill="#421213"/><path d="m917 299-103-3-11 123z" fill="#3a1112"/><path d="m1017 139-90 101 96 55zM1023 295l-96-55 33 59z" fill="#421213"/><path d="m912 737 98 5-79-152z" fill="#160404"/><path d="m851 659 61 78-4-144z" fill="#1e0908"/><path d="m814 296-94 93 83 30z" fill="#511415"/><path d="m803 419-105 34 131 65z" fill="#160404"/><path d="m720 389-11 27 94 3z" fill="#421213"/><path d="m709 416-11 37 105-34z" fill="#0b0000"/><path d="m798 575-65 187 118-103z" fill="#250c0b"/><path d="m1128 741 60-70-101-5z" fill="#0b0000"/><path d="m1087 666 101 5-30-85z" fill="#331010"/><path d="m1158 586 91-175-66-28z" fill="#160404"/><path d="m1284 576-35-165-91 175z" fill="#511415"/><path d="m1149 242-42-16 10 75z" fill="#2c0f0e"/><path d="m698 453 1 109 130-44z" fill="#3a1112"/><path d="m851 659-13 123 74-45z" fill="#4a1314"/><path d="m1149 242-32 59 96-23z" fill="#250c0b"/><path d="m1117 301-10-75-84 69z" fill="#421213"/><path d="m912 737 103 43-5-38z" fill="#591515"/><path d="m1010 742 118-1-41-75z" fill="#0b0000"/><path d="m1116 791 12-50-118 1z" fill="#511415"/><path d="m1213 278-96 23 66 82z" fill="#421213"/><path d="m1017 139-101 49 11 52z" fill="#160404"/><path d="m927 240-11-52-102 108z" fill="#331010"/><path d="m609 270 21 110 90 9z" fill="#591515"/><path d="m1285 311-72-33-30 105zM1257 655l-99-69 30 85z" fill="#421213"/><path d="m1257 655 27-79-126 10z" fill="#1e0908"/><path d="m733 762 105 20 13-123z" fill="#331010"/><path d="m912 737 85 89 18-46z" fill="#160404"/><path d="m1228 784 29-129-69 16zM1015 780l101 11-106-49z" fill="#0b0000"/><path d="m1128 741 100 43-40-113z" fill="#331010"/><path d="m1042 875 74-84-101-11z" fill="#250c0b"/><path d="m838 782 159 44-85-89zM1092 67l-75 72 90 87zM1107 226l-90-87 6 156z" fill="#1e0908"/><path d="m1181 129-74 97 42 16z" fill="#331010"/><path d="m1249 411 36-100-102 72zM1213 278l-32-149-32 113z" fill="#250c0b"/><path d="m1344 379-59-68-36 100z" fill="#160404"/><path d="m924 0-75 152 67 36z" fill="#421213"/><path d="m916 188-67-36-35 144z" fill="#591515"/><path d="m543 513 94 97 62-48z" fill="#160404"/><path d="m699 562 34 200 65-187z" fill="#331010"/><path d="m543 513 156 49-1-109z" fill="#250c0b"/><path d="m609 270 111 119 94-93z" fill="#4a1314"/><path d="m720 389-90-9 79 36z" fill="#0b0000"/><path d="m709 416-79-36 68 73z" fill="#591515"/><path d="m1395 642-64-83-47 17z" fill="#160404"/><path d="m1284 576 47-17-82-148zM637 610l96 152-34-200z" fill="#3a1112"/><path d="m974 964 68-89-45-49z" fill="#1e0908"/><path d="m664 765 68-2 1-1z" fill="#0b0000"/><path d="m733 762-1 1 106 19z" fill="#250c0b"/><path d="m1379 463-35-84-95 32z" fill="#511415"/><path d="m1116 791 112-7-100-43zM1257 655l138-13-111-66z" fill="#2c0f0e"/><path d="m1236 883-8-99-112 7z" fill="#3a1112"/><path d="m835 925 162-99-159-44z" fill="#591515"/><path d="m997 826 45 49-27-95z" fill="#1e0908"/><path d="m1042 875 25 4 49-88z" fill="#160404"/><path d="m1461 523-82-60-48 96z" fill="#2c0f0e"/><path d="m1331 559 48-96-130-52z" fill="#3a1112"/><path d="m1427 293-91-3 8 89z" fill="#591515"/><path d="m1344 379-8-89-51 21z" fill="#160404"/><path d="m1285 311 51-21-123-12z" fill="#4a1314"/><path d="m1342 120-161 9 32 149z" fill="#591515"/><path d="m637 610 27 155 69-3z" fill="#250c0b"/><path d="m732 763 87 149 19-130z" fill="#4a1314"/><path d="m1379 463 13-53-48-31z" fill="#511415"/><path d="m701 151-92 119 205 26z" fill="#3a1112"/><path d="m630 380-87 133 155-60z" fill="#421213"/><path d="m537 411 6 102 87-133z" fill="#3a1112"/><path d="m637 610-45 128 72 27z" fill="#0b0000"/><path d="m684 136 17 15 23-64z" fill="#160404"/><path d="m849 152-148-1 113 145z" fill="#421213"/><path d="m924 0-8 188 101-49z" fill="#2c0f0e"/><path d="m1181 129-89-62 15 159z" fill="#160404"/><path d="m543 513 28 150 66-53z" fill="#3a1112"/><path d="m517 391 20 20 93-31z" fill="#421213"/><path d="m1320 840 14-87-106 31z" fill="#0b0000"/><path d="m1228 784 106-31-77-98z" fill="#4a1314"/><path d="m1379 463 82 60-69-113z" fill="#160404"/><path d="m1334 753 61-111-138 13z" fill="#331010"/><path d="m592 738 67 73 5-46z" fill="#1e0908"/><path d="m664 765-5 46 73-48zM733 946l86-34-87-149z" fill="#3a1112"/><path d="m1042 875-34 89 59-85z" fill="#331010"/><path d="m701 151-75 43-17 76z" fill="#421213"/><path d="m609 270-92 121 113-11z" fill="#250c0b"/><path d="m1226 48-55 28 10 53z" fill="#591515"/><path d="m1181 129-10-53-79-9z" fill="#421213"/><path d="m724 87-23 64 148 1z" fill="#511415"/><path d="m701 151-61 1-14 42z" fill="#2c0f0e"/><path d="m571 663 21 75 45-128zM819 970l16-45-16-13z" fill="#511415"/><path d="m819 912 16 13 3-143z" fill="#0b0000"/><path d="m1092 0-79 24 79 43z" fill="#2c0f0e"/><path d="m1092 67-79-43 4 115z" fill="#511415"/><path d="m626 194-50 53 33 23z" fill="#250c0b"/><path d="m576 247-59 144 92-121z" fill="#2c0f0e"/><path d="m537 411-101 93 107 9z" fill="#4a1314"/><path d="m501 750 53 12 17-99z" fill="#250c0b"/><path d="m804 0-80 87 125 65z" fill="#3a1112"/><path d="m684 136-44 16 61-1z" fill="#0b0000"/><path d="m488 120-6 127h94z" fill="#511415"/><path d="m708 74-68 78 44-16z" fill="#331010"/><path d="m1427 293-47-52-44 49z" fill="#511415"/><path d="m1336 290 44-71-167 59z" fill="#3a1112"/><path d="m1211 923-95-132-49 88z" fill="#250c0b"/><path d="m1211 923 25-40-120-92z" fill="#421213"/><path d="m835 925 139 39 23-138z" fill="#511415"/><path d="M974 964h34l34-89z" fill="#1e0908"/><path d="m1500 239-120-20v22z" fill="#250c0b"/><path d="M1380 241v-22l-44 71z" fill="#0b0000"/><path d="m1438 662 23-139-66 119z" fill="#2c0f0e"/><path d="m1395 642 66-119-130 36z" fill="#331010"/><path d="m1392 410 35-117-83 86z" fill="#0b0000"/><path d="M1013 24 924 0l93 139z" fill="#4a1314"/><path d="m746 0-38 74 16 13z" fill="#2c0f0e"/><path d="m724 87-16-13-24 62z" fill="#250c0b"/><path d="m1567 394-140-101-35 117z" fill="#2c0f0e"/><path d="m1236 883 84-43-92-56zM1334 753l104-91-43-20z" fill="#511415"/><path d="m1487 785-49-123-104 91z" fill="#421213"/><path d="m1092 989 119-66-144-44z" fill="#3a1112"/><path d="m1322 1006 72-71-74-95z" fill="#160404"/><path d="m1113 0-21 67 79 9z" fill="#421213"/><path d="M1113 0h-21v67zM1013 24l79-24H924z" fill="#591515"/><path d="m460 654 111 9-28-150z" fill="#511415"/><path d="m571 663-17 99 38-24z" fill="#331010"/><path d="m592 738-38 24 105 49z" fill="#421213"/><path d="m733 946 86 24v-58z" fill="#2c0f0e"/><path d="m1342 120-116-72-45 81zM1185 0h-72l58 76z" fill="#1e0908"/><path d="m733 946-1-183-73 48z" fill="#511415"/><path d="m835 925-16 45 155-6z" fill="#3a1112"/><path d="m974 964 15 31 19-31z" fill="#160404"/><path d="m927 1080 62-85-15-31z" fill="#1e0908"/><path d="m1008 964 84 25-25-110z" fill="#3a1112"/><path d="m989 995 103-6-84-25z" fill="#250c0b"/><path d="M924 0H804l45 152z" fill="#591515"/><path d="m616 917 117 29-74-135z" fill="#511415"/><path d="m1438 156-96-36 38 99z" fill="#421213"/><path d="m1380 219-38-99-129 158zM1381 0h-196l41 48z" fill="#3a1112"/><path d="m1226 48-41-48-14 76z" fill="#331010"/><path d="M804 0h-58l-22 87z" fill="#0b0000"/><path d="m554 0-66 120 152 32z" fill="#421213"/><path d="m437 418 100-7-20-20z" fill="#0b0000"/><path d="m437 418-1 86 101-93z" fill="#2c0f0e"/><path d="m432 546 28 108 83-141z" fill="#1e0908"/><path d="m460 654 41 96 70-87z" fill="#511415"/><path d="m547 906 69 11 43-106z" fill="#421213"/><path d="m482 247 35 144 59-144z" fill="#250c0b"/><path d="m428 388 9 30 80-27z" fill="#2c0f0e"/><path d="m576 247 50-53-138-74z" fill="#4a1314"/><path d="M746 0h-13l-25 74z" fill="#2c0f0e"/><path d="m333 512 99 34 4-42z" fill="#421213"/><path d="m436 504-4 42 111-33z" fill="#1e0908"/><path d="m488 120 138 74 14-42z" fill="#250c0b"/><path d="m1438 662 83-121-60-18z" fill="#160404"/><path d="m1461 523 63-18-132-95z" fill="#421213"/><path d="m1576 569-55-28-83 121zM1521 541l3-36-63 18z" fill="#4a1314"/><path d="m435 293-7 95 89 3z" fill="#0b0000"/><path d="m437 418-24 48 23 38z" fill="#3a1112"/><path d="m547 906 112-95-105-49z" fill="#250c0b"/><path d="m875 1080 99-116-155 6z" fill="#1e0908"/><path d="m406 415 7 51 24-48z" fill="#4a1314"/><path d="m1500 239-62-83-58 63zM1342 120l39-120-155 48z" fill="#2c0f0e"/><path d="m1500 239-120 2 47 52z" fill="#0b0000"/><path d="m323 309 83 106 22-27zM428 388l-22 27 31 3z" fill="#3a1112"/><path d="m323 246 112 47 47-46z" fill="#2c0f0e"/><path d="m482 247-47 46 82 98z" fill="#3a1112"/><path d="m333 512 69 71 30-37z" fill="#0b0000"/><path d="m432 546-30 37 58 71z" fill="#2c0f0e"/><path d="m460 654-44 39 85 57z" fill="#591515"/><path d="m333 512 103-8-23-38z" fill="#250c0b"/><path d="m1566 292-66-53-73 54zM1167 1080l53-58-128-33z" fill="#1e0908"/><path d="m1092 989 128 33-9-99z" fill="#2c0f0e"/><path d="m1322 1006-2-166-84 43z" fill="#250c0b"/><path d="m1470 858 17-73-153-32z" fill="#511415"/><path d="m1470 858-136-105-14 87z" fill="#331010"/><path d="m875 1080-56-110-15 110z" fill="#0b0000"/><path d="M875 1080h52l47-116z" fill="#591515"/><path d="m989 995 109 85-6-91z" fill="#0b0000"/><path d="m376 672 40 21 44-39z" fill="#591515"/><path d="m501 750 46 156 7-144z" fill="#2c0f0e"/><path d="m435 881 112 25-46-156z" fill="#160404"/><path d="m616 917 16 118 101-89z" fill="#421213"/><path d="m1524 505 43-111-175 16z" fill="#511415"/><path d="m1635 430-68-36-43 111z" fill="#591515"/><path d="m1576 569-52-64-3 36z" fill="#1e0908"/><path d="m547 906 40 39 29-28z" fill="#331010"/><path d="m804 1080 15-110-86-24z" fill="#3a1112"/><path d="m1500 239-29-94-33 11z" fill="#511415"/><path d="M1438 156 1381 0l-39 120z" fill="#591515"/><path d="m1646 244-175-99 29 94z" fill="#421213"/><path d="M927 1080h171l-109-85z" fill="#511415"/><path d="m1602 592-26-23-138 93z" fill="#2c0f0e"/><path d="m554 0 86 152 68-78z" fill="#0b0000"/><path d="m1322 1006-86-123-25 40z" fill="#4a1314"/><path d="m632 1035 172 45-71-134zM1394 935l76-77-150-18z" fill="#160404"/><path d="m1592 783 10-191-164 70z" fill="#2c0f0e"/><path d="m1684 405-118-113 1 102z" fill="#1e0908"/><path d="m1567 394-1-102-139 1z" fill="#160404"/><path d="M1098 1080h69l-75-91z" fill="#421213"/><path d="m1220 1022 102-16-111-83z" fill="#1e0908"/><path d="m1243 1080 79-74-102 16z" fill="#0b0000"/><path d="m402 583-26 89 84-18z" fill="#1e0908"/><path d="m344 848 91 33 66-131z" fill="#3a1112"/><path d="m302 618 74 54 26-89z" fill="#331010"/><path d="m1471 0-33 156 33-11z" fill="#0b0000"/><path d="M1471 0h-90l57 156z" fill="#4a1314"/><path d="m1592 783-154-121 49 123z" fill="#2c0f0e"/><path d="m1576 569 59-139-111 75z" fill="#1e0908"/><path d="m1394 935 55-20 21-57zM1470 858l38-3-21-70z" fill="#4a1314"/><path d="m1461 1041-12-126-55 20z" fill="#511415"/><path d="m275 423 58 89 73-97z" fill="#0b0000"/><path d="m406 415-73 97 80-46z" fill="#421213"/><path d="m323 309 105 79 7-95z" fill="#3a1112"/><path d="M733 0H554l154 74z" fill="#2c0f0e"/><path d="m596 1080 36-45-108 6z" fill="#511415"/><path d="m587 945 45 90-16-118z" fill="#0b0000"/><path d="m483 943 104 2-40-39z" fill="#160404"/><path d="m1449 915 59-60-38 3z" fill="#3a1112"/><path d="M554 0h-11l-55 120z" fill="#421213"/><path d="M1167 1080h76l-23-58z" fill="#591515"/><path d="m1322 1006 139 35-67-106zM1608 823l-75 17 68 98z" fill="#3a1112"/><path d="m1508 855 25-15-46-55zM1689 557l-54-127-59 139z" fill="#4a1314"/><path d="m344 848 157-98-85-57z" fill="#0b0000"/><path d="m435 881 48 62 64-37z" fill="#421213"/><path d="m323 246 159 1-138-100z" fill="#511415"/><path d="M323 246v63l112-16z" fill="#331010"/><path d="m1533 840 59-57-105 2z" fill="#250c0b"/><path d="m1602 592 87-35-113 12z" fill="#511415"/><path d="m205 489 97 129 31-106z" fill="#331010"/><path d="m333 512-31 106 100-35z" fill="#421213"/><path d="m376 672-32 176 72-155z" fill="#250c0b"/><path d="M596 1080h26l10-45z" fill="#4a1314"/><path d="m632 1035-10 45h182z" fill="#511415"/><path d="M1243 1080h92l-13-74zM1601 938l-68-98-25 15z" fill="#591515"/><path d="m1533 840 75-17-16-40zM383 116l99 131 6-127z" fill="#2c0f0e"/><path d="m323 309-48 114 131-8z" fill="#1e0908"/><path d="M1480 0h-9l56 34z" fill="#4a1314"/><path d="M1471 0v145l56-111z" fill="#4a1314"/><path d="m436 26-53 90 105 4z" fill="#0b0000"/><path d="m1685 662-24-47-59-23z" fill="#4a1314"/><path d="m1646 244-146-5 66 53z" fill="#0b0000"/><path d="m258 354 17 69 48-114z" fill="#250c0b"/><path d="m524 1041 108-6-45-90z" fill="#4a1314"/><path d="M543 0 436 26l52 94z" fill="#1e0908"/><path d="m517 1080 7-39-162 39z" fill="#0b0000"/><path d="m483 943 41 98 63-96z" fill="#250c0b"/><path d="m1684 405-117-11 68 36z" fill="#511415"/><path d="m1684 405-38-161-80 48z" fill="#0b0000"/><path d="m1720 438-36-33-49 25z" fill="#250c0b"/><path d="m1684 87-157-53-56 111z" fill="#331010"/><path d="M1335 1080h39l-52-74z" fill="#250c0b"/><path d="m325 61 19 86 39-31zM383 116l-39 31 138 100zM235 333l23 21 65-45z" fill="#2c0f0e"/><path d="m1592 783 93-121-83-70z" fill="#421213"/><path d="m1601 938-93-83-59 60z" fill="#331010"/><path d="m1661 615 28-58-87 35z" fill="#160404"/><path d="m1685 662 4-105-28 58z" fill="#331010"/><path d="m264 815 80 33 32-176z" fill="#591515"/><path d="m435 881-83 71 131-9zM235 333l88-24v-63z" fill="#511415"/><path d="m159 593 71 68 72-43z" fill="#331010"/><path d="m1694 747-9-85-93 121z" fill="#591515"/><path d="m1374 1080 87-39-139-35z" fill="#421213"/><path d="m1734 531-14-93-31 119z" fill="#511415"/><path d="m1689 557 31-119-85-8z" fill="#421213"/><path d="m1693 209-2-4-45 39zM353 992l171 49-41-98z" fill="#511415"/><path d="m524 1041-7 39h79z" fill="#3a1112"/><path d="m221 193 14 140 88-87z" fill="#331010"/><path d="m159 446 46 43 70-66z" fill="#591515"/><path d="m302 618-72 43 146 11z" fill="#421213"/><path d="m1685 662 49-131-45 26z" fill="#511415"/><path d="m205 489 128 23-58-89z" fill="#1e0908"/><path d="m1608 823 86-76-102 36z" fill="#421213"/><path d="m1685 662 99 34-50-165z" fill="#3a1112"/><path d="m1780 789-86-42 60 146z" fill="#591515"/><path d="M1684 87 1569 0l-42 34z" fill="#421213"/><path d="m1527 34 42-34h-89z" fill="#250c0b"/><path d="m1684 87-213 58 175 99z" fill="#511415"/><path d="m159 446 116-23-17-69z" fill="#2c0f0e"/><path d="m1646 244 38 161 48-96z" fill="#3a1112"/><path d="m1693 209-47 35 86 65z" fill="#591515"/><path d="m1732 309-48 96 36 33z" fill="#2c0f0e"/><path d="m1461 1041 140-103-152-23z" fill="#3a1112"/><path d="m368 0-43 61 58 55z" fill="#511415"/><path d="m344 147-123 46 102 53z" fill="#331010"/><path d="m250 971 102-19-8-104z" fill="#160404"/><path d="m344 848 8 104 83-71zM543 0H368l68 26z" fill="#160404"/><path d="M436 26 368 0l15 116z" fill="#331010"/><path d="m1815 405-83-96-12 129z" fill="#250c0b"/><path d="m230 661 34 154 112-143z" fill="#4a1314"/><path d="m1836 473-61 3-41 55z" fill="#331010"/><path d="m1734 531 41-55-55-38z" fill="#331010"/><path d="m250 971 103 21-1-40z" fill="#1e0908"/><path d="m352 952 1 40 130-49z" fill="#421213"/><path d="m255 0-34 193L325 61zM325 61 221 193l123-46z" fill="#511415"/><path d="m235 333-76 113 99-92z" fill="#4a1314"/><path d="m1691 205-7-118-38 157z" fill="#331010"/><path d="m1741 181-57-94 7 118zM1741 181l-50 24 2 4z" fill="#2c0f0e"/><path d="m1741 181-48 28 39 100z" fill="#3a1112"/><path d="m167 309-8 137 76-113z" fill="#331010"/><path d="m205 489-46 104 143 25z" fill="#511415"/><path d="m230 661-67 69 101 85z" fill="#591515"/><path d="m1617 1025 38-81-54-6z" fill="#1e0908"/><path d="m1601 938 54 6-47-121z" fill="#3a1112"/><path d="m1694 747 90-51-99-34z" fill="#2c0f0e"/><path d="m159 446-5 36 51 7z" fill="#1e0908"/><path d="m145 569 14 24 46-104z" fill="#2c0f0e"/><path d="m1871 294-130-113-9 128z" fill="#0b0000"/><path d="M159 446 0 468l154 14zM221 193l-54 116 68 24z" fill="#160404"/><path d="M1374 1080h180l-93-39z" fill="#331010"/><path d="m1461 1041 93 39 47-142z" fill="#0b0000"/><path d="m154 482-9 87 60-80z" fill="#3a1112"/><path d="m136 616 27 114 67-69z" fill="#331010"/><path d="M136 616 54 729l109 1z" fill="#511415"/><path d="m1780 789 4-93-90 51z" fill="#3a1112"/><path d="m1554 1080 63-55-16-87zM1780 789l31-104-27 11z" fill="#0b0000"/><path d="m1836 473-21-68-40 71z" fill="#511415"/><path d="m1775 476 40-71-95 33z" fill="#2c0f0e"/><path d="m136 616 94 45-71-68z" fill="#4a1314"/><path d="M258 1080h104l-9-88z" fill="#0b0000"/><path d="m0 528 145 41 9-87z" fill="#511415"/><path d="m145 569-9 47 23-23z" fill="#2c0f0e"/><path d="m353 992 9 88 162-39z" fill="#3a1112"/><path d="m250 971 94-123-80-33z" fill="#1e0908"/><path d="m1694 747-86 76 146 70z" fill="#591515"/><path d="m1784 696 27-11-77-154z" fill="#331010"/><path d="m1754 893-146-70 47 121z" fill="#3a1112"/><path d="m1811 685 25-212-102 58z" fill="#160404"/><path d="M368 0H255l70 61z" fill="#2c0f0e"/><path d="M221 193 116 308l51 1z" fill="#511415"/><path d="m214 946 36 25 14-156z" fill="#331010"/><path d="m44 296 72 12-81-159z" fill="#421213"/><path d="m167 309-51-1 43 138z" fill="#1e0908"/><path d="M1920 691V519l-109 166z" fill="#4a1314"/><path d="m1822 960-68-67 40 114z" fill="#1e0908"/><path d="m148 844 66 102 50-131z" fill="#250c0b"/><path d="m250 971 8 109 95-88z" fill="#3a1112"/><path d="m148 844 116-29-101-85z" fill="#0b0000"/><path d="m1878 114-110-42-27 109z" fill="#160404"/><path d="m1741 181 27-109-84 15z" fill="#421213"/><path d="m1684 87 71-87h-186zM1871 294l-139 15 83 96z" fill="#2c0f0e"/><path d="m78 752 70 92 15-114z" fill="#511415"/><path d="m78 752 85-22-109-1z" fill="#1e0908"/><path d="M1554 1080h109l-46-55z" fill="#2c0f0e"/><path d="m1617 1025 46 55-8-136z" fill="#0b0000"/><path d="m1920 401-49-107-56 111z" fill="#591515"/><path d="m1920 401-105 4 21 68z" fill="#3a1112"/><path d="M1805 0h-50l13 72z" fill="#2c0f0e"/><path d="m1768 72-13-72-71 87zM189 992l61-21-36-25z" fill="#511415"/><path d="M238 1080h20l-8-109z" fill="#591515"/><path d="m151 936 38 56 25-46z" fill="#250c0b"/><path d="m54 729 82-113L0 577z" fill="#1e0908"/><path d="m148 844 3 92 63 10z" fill="#3a1112"/><path d="m107 946 44-10-3-92z" fill="#250c0b"/><path d="M255 0 147 44l74 149z" fill="#160404"/><path d="M255 0h-84l-24 44z" fill="#3a1112"/><path d="m0 35 133 33 14-24z" fill="#4a1314"/><path d="m147 44-14 24 88 125z" fill="#1e0908"/><path d="M116 308 0 468l159-22z" fill="#250c0b"/><path d="m1871 294 10-72-140-41z" fill="#421213"/><path d="M70 1080h168l-49-88z" fill="#511415"/><path d="m189 992 49 88 12-109z" fill="#0b0000"/><path d="m1890 744-79-59-31 104z" fill="#511415"/><path d="m1811 685 109-166-84-46z" fill="#2c0f0e"/><path d="m1871 294 49 12-39-84z" fill="#511415"/><path d="M1920 519V401l-84 72z" fill="#0b0000"/><path d="m35 149 81 159 105-115z" fill="#591515"/><path d="m1835 892-55-103-26 104z" fill="#3a1112"/><path d="m1920 774-30-30-110 45z" fill="#4a1314"/><path d="m1822 960 13-68-81 1z" fill="#1e0908"/><path d="m0 577 136 39 9-47z" fill="#2c0f0e"/><path d="m0 949 107-3 41-102z" fill="#511415"/><path d="M1663 1080h59l-67-136z" fill="#3a1112"/><path d="M171 0h-20l-4 44z" fill="#511415"/><path d="M0 221v86l44-11z" fill="#2c0f0e"/><path d="M1920 401v-84l-49-23z" fill="#4a1314"/><path d="M1920 317v-11l-49-12z" fill="#421213"/><path d="M1878 114 1805 0l-37 72z" fill="#250c0b"/><path d="m1878 114-137 67 140 41z" fill="#1e0908"/><path d="M1920 734v-43l-30 53z" fill="#0b0000"/><path d="m1890 744 30-53-109-6z" fill="#4a1314"/><path d="m1794 1007-40-114-99 51z" fill="#2c0f0e"/><path d="M1920 774v-40l-30 10z" fill="#3a1112"/><path d="m1722 1080 72-73-139-63z" fill="#160404"/><path d="M44 296 0 468l116-160z" fill="#3a1112"/><path d="M0 468v60l154-46z" fill="#0b0000"/><path d="m1920 774-140 15 55 103z" fill="#250c0b"/><path d="m1920 162-42-48 3 108z" fill="#3a1112"/><path d="M0 528v49l145-8z" fill="#1e0908"/><path d="m0 949 148-105-70-92z" fill="#2c0f0e"/><path d="m151 936-44 10 82 46z" fill="#3a1112"/><path d="m0 753 78-1-24-23z" fill="#160404"/><path d="M1920 929V774l-85 118z" fill="#421213"/><path d="M44 296 0 307v161z" fill="#2c0f0e"/><path d="m35 149 186 44-88-125z" fill="#160404"/><path d="m0 35 35 114 98-81z" fill="#421213"/><path d="M1920 306V162l-39 60zM1878 114l42-76-115-38z" fill="#331010"/><path d="M0 577v159l54-7z" fill="#0b0000"/><path d="M35 149 0 221l44 75zM0 736v17l54-24z" fill="#511415"/><path d="M35 149 0 208v13z" fill="#1e0908"/><path d="m1794 1007 126-5-98-42z" fill="#2c0f0e"/><path d="m1822 960 98-31-85-37z" fill="#331010"/><path d="M1722 1080h78l-6-73z" fill="#250c0b"/><path d="M1920 1002v-73l-98 31z" fill="#591515"/><path d="M1920 162V38l-42 76z" fill="#511415"/><path d="M1920 38V0h-115z" fill="#160404"/><path d="M0 0v35l147 9z" fill="#1e0908"/><path d="M35 149 0 35v173zM1800 1080l120-78-126 5z" fill="#3a1112"/><path d="M0 753v196l78-197z" fill="#4a1314"/><path d="m107 946-37 134 119-88z" fill="#1e0908"/><path d="m0 1014 70 66 37-134z" fill="#0b0000"/><path d="M151 0H0l147 44z" fill="#1e0908"/><path d="M0 949v65l107-68z" fill="#160404"/><path d="M1800 1080h120v-78z" fill="#3a1112"/><path d="M0 1014v66h70z" fill="#511415"/></g></svg>