<svg id="visual" xmlns="http://www.w3.org/2000/svg" xmlns:xlink="http://www.w3.org/1999/xlink" version="1.1">
<rect  height="100%" width="100%" fill="#0B0C0D">
</rect>


<path d="M0 458L274 270L549 458L823 402L1097 456L1371 366L1646 394L1920 274L1920 0L1646 0L1371 0L1097 0L823 0L549 0L274 0L0 0Z" fill="#5c1111"></path><path d="M0 321L274 346L549 263L823 241L1097 232L1371 352L1646 295L1920 323L1920 0L1646 0L1371 0L1097 0L823 0L549 0L274 0L0 0Z" fill="#831113"></path><path d="M0 193L274 228L549 184L823 242L1097 189L1371 219L1646 270L1920 294L1920 0L1646 0L1371 0L1097 0L823 0L549 0L274 0L0 0Z" fill="#ab0d13"></path><path d="M0 136L274 209L549 125L823 173L1097 174L1371 155L1646 220L1920 139L1920 0L1646 0L1371 0L1097 0L823 0L549 0L274 0L0 0Z" fill="#d5060e">
</path><path d="M0 67L274 83L549 116L823 43L1097 124L1371 84L1646 120L1920 111L1920 0L1646 0L1371 0L1097 0L823 0L549 0L274 0L0 0Z" fill="#ff0000"></path></svg>